<?xml version="1.0" encoding="UTF-8"?>
<svg id="Layer_1" xmlns="http://www.w3.org/2000/svg" version="1.1" viewBox="0 0 24 24">
  <!-- Generator: Adobe Illustrator 29.8.2, SVG Export Plug-In . SVG Version: 2.1.1 Build 3)  -->
  <path d="M18.6,8.9v-2.5c0-3.3-2.3-6-5.1-6h-2.8c-2.8,0-5.1,2.7-5.1,6v2.5c-2,.2-3.6,1.9-3.6,4v6.9c0,2.2,1.8,4,4,4h12.3c2.2,0,4-1.8,4-4v-6.9c0-2.1-1.6-3.7-3.6-4ZM7.4,6.3c0-2.2,1.4-4,3.1-4h2.8c1.7,0,3.1,1.8,3.1,4v2.5H7.4v-2.5ZM20.1,19.7c0,1.1-.9,2-2,2H5.9c-1.1,0-2-.9-2-2v-6.9c0-1.1.9-2,2-2h12.3c1.1,0,2,.9,2,2v6.9Z"/>
  <path d="M6.5,15.7c-.7,0-1.2.5-1.2,1.2s.5,1.2,1.2,1.2,1.2-.5,1.2-1.2-.5-1.2-1.2-1.2Z"/>
  <circle cx="10.2" cy="16.9" r="1.2"/>
  <circle cx="13.8" cy="16.9" r="1.2"/>
  <path d="M17.5,15.7c-.7,0-1.2.5-1.2,1.2s.5,1.2,1.2,1.2,1.2-.5,1.2-1.2-.5-1.2-1.2-1.2Z"/>
</svg>